<svg xmlns="http://www.w3.org/2000/svg" viewBox="0 -0.5 16 16" shape-rendering="crispEdges">
<metadata>Made with Pixels to Svg https://codepen.io/shshaw/pen/XbxvNj</metadata>
<path stroke="#010000" d="M3 2h1M7 2h1M9 2h1M11 2h2M1 4h1M15 4h1M0 5h1M0 7h1M3 9h1M12 9h1M3 10h1" />
<path stroke="#010001" d="M4 2h1M6 2h1M0 4h1M14 8h1M13 9h1M4 11h1M11 11h1M5 12h1M8 13h1" />
<path stroke="#000101" d="M5 2h1M15 6h1M1 7h1M15 7h1M12 10h1M6 12h1M9 13h1" />
<path stroke="#000000" d="M8 2h1M14 4h1M0 6h1M9 12h2M7 13h1" />
<path stroke="#010100" d="M10 2h1M3 3h1M14 7h1M10 11h1" />
<path stroke="#000001" d="M1 3h1M13 3h2M15 5h1M2 8h1M13 8h1M2 9h1M4 10h1M11 10h1M6 13h1" />
<path stroke="#010101" d="M2 3h1" />
<path stroke="#fffefe" d="M4 3h1" />
<path stroke="#ffffff" d="M5 3h1M4 4h1M1 6h1" />
<path stroke="#c59fff" d="M6 3h1" />
<path stroke="#a46bfe" d="M7 3h1M2 7h1" />
<path stroke="#6f13ff" d="M8 3h1M7 4h1M6 10h1" />
<path stroke="#4500ac" d="M9 3h1M10 4h1" />
<path stroke="#24015c" d="M10 3h1" />
<path stroke="#24005d" d="M11 3h1M12 4h1M14 5h1" />
<path stroke="#000100" d="M12 3h1M1 8h1M5 11h1" />
<path stroke="#feffff" d="M2 4h1" />
<path stroke="#fefefe" d="M3 4h1" />
<path stroke="#c49ffe" d="M5 4h1" />
<path stroke="#a56bff" d="M6 4h1" />
<path stroke="#6f12fe" d="M8 4h1M6 6h1M5 8h1" />
<path stroke="#4501ac" d="M9 4h1M10 5h1" />
<path stroke="#24015d" d="M11 4h1" />
<path stroke="#25005c" d="M13 4h1" />
<path stroke="#fffffe" d="M1 5h1" />
<path stroke="#fefeff" d="M2 5h1" />
<path stroke="#c59ffe" d="M3 5h1M2 6h1" />
<path stroke="#c49eff" d="M4 5h1" />
<path stroke="#a46aff" d="M5 5h1" />
<path stroke="#6f13fe" d="M6 5h1M5 10h1" />
<path stroke="#6f12ff" d="M7 5h1M6 11h1" />
<path stroke="#6e13ff" d="M8 5h2M4 8h1M5 9h1" />
<path stroke="#4500ad" d="M11 5h1" />
<path stroke="#25005d" d="M12 5h1" />
<path stroke="#24005c" d="M13 5h1" />
<path stroke="#a46bff" d="M3 6h1" />
<path stroke="#863afe" d="M4 6h1M4 7h1" />
<path stroke="#6e12ff" d="M5 6h1" />
<path stroke="#5200d4" d="M7 6h1M6 8h2" />
<path stroke="#5301d4" d="M8 6h1M7 9h1" />
<path stroke="#5300d4" d="M9 6h1M6 9h1M8 9h1" />
<path stroke="#320182" d="M10 6h1M10 7h1" />
<path stroke="#320183" d="M11 6h1M9 9h1" />
<path stroke="#18003f" d="M12 6h1" />
<path stroke="#18003e" d="M13 6h2M11 8h1M9 11h1" />
<path stroke="#873bff" d="M3 7h1" />
<path stroke="#6e13fe" d="M5 7h1" />
<path stroke="#5201d4" d="M6 7h1" />
<path stroke="#5300d5" d="M7 7h1M8 8h1" />
<path stroke="#5201d5" d="M8 7h1M7 11h1M7 12h1" />
<path stroke="#5301d5" d="M9 7h1M7 10h1" />
<path stroke="#19003e" d="M11 7h1M11 9h1" />
<path stroke="#19013e" d="M12 7h1M12 8h1" />
<path stroke="#18013e" d="M13 7h1" />
<path stroke="#873aff" d="M3 8h1" />
<path stroke="#330182" d="M9 8h1M8 10h1M8 11h1" />
<path stroke="#330083" d="M10 8h1" />
<path stroke="#6e12fe" d="M4 9h1" />
<path stroke="#19013f" d="M10 9h1M9 10h1M8 12h1" />
<path stroke="#18013f" d="M10 10h1" />
</svg>